<svg width="34" height="34" viewBox="0 0 34 34" fill="none" xmlns="http://www.w3.org/2000/svg">
<path d="M26.1676 17.9572C26.1737 19.3848 26.6073 20.7795 27.4149 21.9692C28.2225 23.159 29.3688 24.0918 30.7125 24.6527C30.1684 26.3242 29.379 27.9096 28.3689 29.3596C26.9567 31.3747 25.4903 33.3832 23.184 33.4246C20.915 33.4659 20.1868 32.1109 17.5961 32.1109C15.0036 32.1109 14.1925 33.3832 12.0505 33.4676C9.82209 33.5486 8.12708 31.287 6.70301 29.2785C3.79051 25.1689 1.56888 17.6693 4.5525 12.6067C5.25323 11.3821 6.26728 10.356 7.49548 9.62903C8.72368 8.902 10.124 8.49888 11.5594 8.45907C13.7472 8.41771 15.8096 9.89677 17.1474 9.89677C18.4834 9.89677 20.9912 8.11825 23.6294 8.37965C24.8518 8.42117 26.0478 8.73921 27.1232 9.30877C28.1986 9.87833 29.1241 10.6839 29.8269 11.6621C28.7221 12.3235 27.807 13.2479 27.1674 14.3489C26.5277 15.4498 26.1826 16.6913 26.1676 17.9572ZM21.9022 5.66141C23.1821 4.19776 23.8165 2.29834 23.6666 0.378784C21.7375 0.562017 19.9533 1.4594 18.6798 2.88691C18.0441 3.57838 17.5575 4.38782 17.2488 5.26697C16.9401 6.14612 16.8158 7.07699 16.8832 8.0041C17.8486 8.01731 18.8041 7.81281 19.6755 7.4065C20.5468 7.00019 21.3105 6.40302 21.9073 5.66141H21.9022Z" fill="white"/>
</svg>
