<svg width="34" height="34" viewBox="0 0 34 34" fill="none" xmlns="http://www.w3.org/2000/svg">
<rect width="34" height="34" rx="17" fill="#EBF3F6"/>
<path d="M30.8918 14.2255H29.7507V14.1667H17.0007V19.8334H25.0069C23.8389 23.1321 20.7003 25.5 17.0007 25.5C12.3065 25.5 8.50065 21.6942 8.50065 17C8.50065 12.3059 12.3065 8.50004 17.0007 8.50004C19.1674 8.50004 21.1387 9.31746 22.6397 10.6527L26.6467 6.64562C24.1166 4.28758 20.7322 2.83337 17.0007 2.83337C9.17711 2.83337 2.83398 9.1765 2.83398 17C2.83398 24.8236 9.17711 31.1667 17.0007 31.1667C24.8242 31.1667 31.1673 24.8236 31.1673 17C31.1673 16.0502 31.0696 15.123 30.8918 14.2255Z" fill="#FFC107"/>
<path d="M4.4668 10.4062L9.12126 13.8196C10.3807 10.7015 13.4308 8.50004 17 8.50004C19.1668 8.50004 21.1381 9.31746 22.6391 10.6527L26.6461 6.64562C24.116 4.28758 20.7315 2.83337 17 2.83337C11.5586 2.83337 6.83971 5.90542 4.4668 10.4062Z" fill="#FF3D00"/>
<path d="M17.0005 31.1667C20.6598 31.1667 23.9847 29.7663 26.4986 27.489L22.114 23.7787C20.6439 24.8968 18.8475 25.5015 17.0005 25.5C13.3158 25.5 10.1871 23.1505 9.00842 19.8716L4.38867 23.431C6.73326 28.0188 11.4947 31.1667 17.0005 31.1667Z" fill="#4CAF50"/>
<path d="M30.8911 14.2255H29.75V14.1667H17V19.8334H25.0063C24.4476 21.4034 23.4411 22.7752 22.1113 23.7795L22.1135 23.7781L26.498 27.4884C26.1878 27.7703 31.1667 24.0834 31.1667 17.0001C31.1667 16.0502 31.0689 15.123 30.8911 14.2255Z" fill="#1976D2"/>
</svg>
