<svg width="208" height="57" viewBox="0 0 208 57" fill="none" xmlns="http://www.w3.org/2000/svg">
<path d="M13.4406 36.9249L4.41272 45.9778C1.91924 48.4782 1.91924 52.5303 4.41272 55.0307C6.9062 57.5311 10.9471 57.5311 13.4406 55.0307L31.4964 36.9249C33.9898 34.4245 33.9898 30.3724 31.4964 27.872L13.4406 9.76615C10.9471 7.26576 6.9062 7.26576 4.41272 9.76615C1.91924 12.2665 1.91924 16.3187 4.41272 18.8214L13.4406 27.872C15.9341 30.3724 15.9341 34.4245 13.4406 36.9249Z" fill="white"/>
<path d="M4.14443 34.1183L0.709532 37.5604C-0.236511 38.5114 -0.236511 40.0515 0.709532 41.0025C1.65789 41.9512 3.19607 41.9512 4.14443 41.0025L11.005 34.1183C11.9533 33.1697 11.9533 31.6272 11.005 30.6785L4.14443 23.7943C3.19607 22.8457 1.65789 22.8457 0.709532 23.7943C-0.236511 24.7453 -0.236511 26.2855 0.709532 27.2364L4.14443 30.6785C5.09047 31.6272 5.09047 33.1697 4.14443 34.1183Z" fill="white"/>
<path d="M2.42817 41.7123C2.26163 41.7123 2.09278 41.6961 1.92855 41.6613C2.37729 41.5685 2.80058 41.3505 3.14985 41.0025L10.0127 34.1183C10.9587 33.1697 10.9587 31.6272 10.0127 30.6785L3.14985 23.7943C2.80058 23.4487 2.37729 23.2284 1.92855 23.1356C2.09278 23.1031 2.26163 23.0846 2.42817 23.0846C3.04807 23.0846 3.67025 23.3212 4.14443 23.7943L11.005 30.6785C11.4791 31.1517 11.7174 31.7757 11.7174 32.3973C11.7174 33.0212 11.4791 33.6428 11.005 34.1183L4.14443 41.0025C3.67025 41.4757 3.04807 41.7123 2.42817 41.7123Z" fill="#C7C7C7"/>
<path d="M28.4039 40.026L19.4084 31.0079C16.9172 28.5075 16.9172 24.4531 19.4084 21.9527L22.5009 18.8515L31.4964 27.872C32.7431 29.1222 33.3677 30.7597 33.3677 32.3973C33.3677 34.0372 32.7431 35.6747 31.4964 36.9249L28.4039 40.026Z" fill="#C7C7C7"/>
<path d="M39.4325 19.9811L48.4603 10.9259C50.9538 8.42781 50.9538 4.37337 48.4603 1.8753C45.9669 -0.625099 41.9259 -0.625099 39.4325 1.8753L21.3767 19.9811C18.8855 22.4792 18.8855 26.5336 21.3767 29.0317L39.4325 47.1375C41.9259 49.6379 45.9669 49.6379 48.4603 47.1375C50.9538 44.6395 50.9538 40.585 48.4603 38.0869L39.4325 29.0317C36.9413 26.5336 36.9413 22.4792 39.4325 19.9811Z" fill="white"/>
<path d="M48.731 22.7854L52.1612 19.3456C53.1096 18.3946 53.1096 16.8545 52.1612 15.9035C51.2152 14.9525 49.6793 14.9525 48.731 15.9035L41.8681 22.7854C40.9198 23.7364 40.9198 25.2765 41.8681 26.2275L48.731 33.1094C49.6793 34.0603 51.2152 34.0603 52.1612 33.1094C53.1096 32.1607 53.1096 30.6182 52.1612 29.6696L48.731 26.2275C47.7826 25.2765 47.7826 23.7364 48.731 22.7854Z" fill="white"/>
<path d="M67.0762 36.9123H79.0208V42.9708H60.5626V12.9104H78.549V18.9224H67.0762V24.851H77.4387V30.7332H67.0762V36.9123Z" fill="white"/>
<path d="M100.521 19.7389H105.193V42.9244H100.271L99.7531 40.8647C98.7539 41.7252 97.6182 42.4002 96.3483 42.8872C95.0761 43.3697 93.7137 43.6109 92.2588 43.6109C89.9457 43.6109 87.8755 43.0751 86.0505 42.0058C84.2232 40.9296 82.7799 39.4707 81.7205 37.6267C80.6657 35.778 80.1384 33.6812 80.1384 31.3363C80.1384 29.0168 80.6657 26.9339 81.7205 25.0829C82.7799 23.2343 84.2232 21.78 86.0505 20.7223C87.8755 19.6646 89.9457 19.1358 92.2588 19.1358C93.7438 19.1358 95.1293 19.3863 96.413 19.8873C97.6945 20.3883 98.8371 21.0819 99.8364 21.9656L100.521 19.7389ZM92.7769 37.6916C93.9728 37.6916 95.0483 37.4202 96.006 36.8752C96.9613 36.3324 97.7107 35.5809 98.2542 34.6206C98.7955 33.6627 99.0684 32.5679 99.0684 31.3363C99.0684 30.1301 98.7955 29.0492 98.2542 28.089C97.7107 27.131 96.9613 26.3726 96.006 25.8159C95.0483 25.2546 93.9728 24.9716 92.7769 24.9716C91.5487 24.9716 90.4639 25.2546 89.5201 25.8159C88.5764 26.3726 87.8316 27.131 87.2903 28.089C86.7468 29.0492 86.4761 30.1301 86.4761 31.3363C86.4761 32.5679 86.7468 33.6557 87.2903 34.6021C87.8316 35.5438 88.5764 36.2953 89.5201 36.8566C90.4639 37.4133 91.5487 37.6916 92.7769 37.6916Z" fill="white"/>
<path d="M116.973 43.6109C115.03 43.6109 113.33 43.2676 111.875 42.5811C110.418 41.8945 109.285 40.9296 108.47 39.6864C107.656 38.4431 107.249 36.9911 107.249 35.3257H113.328C113.358 36.3602 113.728 37.1326 114.438 37.6452C115.153 38.1601 116.069 38.4153 117.186 38.4153C118.067 38.4153 118.835 38.2251 119.49 37.8401C120.149 37.4504 120.48 36.8705 120.48 36.0958C120.48 35.2979 120.045 34.7366 119.175 34.4072C118.306 34.0732 117.256 33.8088 116.03 33.6093C115.116 33.4678 114.165 33.2661 113.18 33.0063C112.192 32.7465 111.285 32.3754 110.46 31.8929C109.632 31.4058 108.954 30.7309 108.424 29.8703C107.899 29.0121 107.638 27.8941 107.638 26.521C107.638 25.0621 108.029 23.7748 108.813 22.6614C109.595 21.5434 110.677 20.6759 112.06 20.0636C113.448 19.4466 115.086 19.1358 116.973 19.1358C118.828 19.1358 120.448 19.4582 121.831 20.1007C123.219 20.7455 124.296 21.6478 125.069 22.8099C125.839 23.9673 126.226 25.3195 126.226 26.8643H120.267C120.267 25.9504 119.957 25.2639 119.342 24.8046C118.731 24.3477 117.882 24.118 116.798 24.118C115.828 24.118 115.072 24.3268 114.531 24.7397C113.987 25.1548 113.717 25.693 113.717 26.354C113.717 27.1287 114.144 27.6576 115.003 27.9405C115.858 28.2258 116.885 28.4694 118.084 28.6735C119.027 28.8405 119.999 29.0492 120.998 29.2951C121.997 29.5363 122.925 29.9028 123.783 30.3899C124.639 30.8724 125.33 31.545 125.855 32.4032C126.385 33.2637 126.651 34.3956 126.651 35.7989C126.651 37.3762 126.249 38.7539 125.448 39.9276C124.653 41.0966 123.526 42.0035 122.071 42.646C120.614 43.2885 118.916 43.6109 116.973 43.6109Z" fill="white"/>
<path d="M144.771 19.776H151.451L141.338 42.6739C140.424 44.7637 139.497 46.443 138.553 47.7118C137.614 48.9851 136.545 49.9106 135.343 50.4858C134.144 51.0611 132.673 51.3487 130.929 51.3487H128.366V45.6799H130.55C131.549 45.6799 132.34 45.5639 132.928 45.3366C133.513 45.107 134.013 44.6825 134.427 44.0655C134.838 43.4532 135.289 42.5602 135.777 41.3842L135.861 41.2079L126.053 19.776H132.863L139.025 34.0361L144.771 19.776Z" fill="white"/>
<path d="M165.707 27.254H181.686C181.653 29.6291 181.269 31.8141 180.529 33.8042C179.789 35.7896 178.739 37.5153 177.383 38.9812C176.025 40.4425 174.413 41.5791 172.544 42.3955C170.675 43.205 168.612 43.6109 166.355 43.6109C164.153 43.6109 162.108 43.2236 160.22 42.4512C158.338 41.6788 156.691 40.5933 155.28 39.1946C153.866 37.7914 152.775 36.1306 152.004 34.2124C151.232 32.2965 150.848 30.2183 150.848 27.9777C150.848 25.7208 151.223 23.6402 151.977 21.7336C152.735 19.8293 153.809 18.1686 155.196 16.7514C156.584 15.3365 158.217 14.2348 160.1 13.4485C161.988 12.6575 164.028 12.2609 166.225 12.2609C168.709 12.2609 171.008 12.7503 173.118 13.7268C175.232 14.6987 177.004 16.0439 178.429 17.7627C179.858 19.4837 180.802 21.4715 181.26 23.7284H174.58C173.951 22.0955 172.891 20.8105 171.406 19.8688C169.919 18.9224 168.235 18.4492 166.355 18.4492C164.583 18.4492 163.026 18.8575 161.682 19.6739C160.343 20.4904 159.295 21.6084 158.536 23.0233C157.778 24.4405 157.398 26.0919 157.398 27.9777C157.398 29.8402 157.768 31.4824 158.509 32.9042C159.253 34.3214 160.297 35.4324 161.636 36.235C162.98 37.0329 164.553 37.4318 166.355 37.4318C168.298 37.4318 170.039 36.9587 171.582 36.0123C173.123 35.066 174.166 33.8204 174.709 32.2733H165.707V27.254Z" fill="white"/>
<path d="M194.838 43.6109C192.437 43.6109 190.295 43.0751 188.407 42.0058C186.525 40.9296 185.042 39.4707 183.957 37.6267C182.87 35.778 182.329 33.6928 182.329 31.3734C182.329 29.0307 182.87 26.9339 183.957 25.0829C185.042 23.2343 186.525 21.78 188.407 20.7223C190.295 19.6646 192.437 19.1358 194.838 19.1358C197.206 19.1358 199.33 19.6646 201.213 20.7223C203.1 21.78 204.585 23.2343 205.672 25.0829C206.757 26.9339 207.3 29.0307 207.3 31.3734C207.3 33.6928 206.757 35.778 205.672 37.6267C204.585 39.4707 203.1 40.9296 201.213 42.0058C199.33 43.0751 197.206 43.6109 194.838 43.6109ZM194.838 37.7287C196.633 37.7287 198.099 37.1442 199.242 35.9752C200.389 34.8015 200.963 33.2661 200.963 31.3734C200.963 29.4876 200.389 27.9568 199.242 26.7808C198.099 25.6071 196.633 25.018 194.838 25.018C193.006 25.018 191.518 25.6071 190.378 26.7808C189.235 27.9568 188.666 29.4876 188.666 31.3734C188.666 33.2661 189.235 34.8015 190.378 35.9752C191.518 37.1442 193.006 37.7287 194.838 37.7287Z" fill="white"/>
</svg>
